<svg id="Layer_1" enable-background="new 0 0 480 480" height="512" viewBox="0 0 480 480" width="512" xmlns="http://www.w3.org/2000/svg"><path d="m479.994 414.68c-.37 20.429-17.384 36.87-38.024 36.306-27.01-.738-44.696-30.008-31.6-54.416l-43.67-37.43c-39.223 41.68-95.458 61.034-151.135 53.135-4.964-.704-8.023-5.808-6.377-10.544l11.675-33.585c1.412-4.061-.736-8.497-4.797-9.909-4.894-1.702-9.006.887-10.316 4.655-2.544 7.319-19.272 55.438-21.919 63.054 7.933 5.293 13.169 14.321 13.169 24.554 0 16.27-13.23 29.5-29.5 29.5s-29.5-13.23-29.5-29.5c0-16.6 13.79-30.094 30.602-29.472l6.778-19.499c-31.109-12.487-57.815-33.691-77.04-60.599l-26.65 17.2c8.544 22.993-7.308 47.448-31.105 49.7-22.888 2.166-42.074-16.672-40.494-39.453 2.161-31.165 40.319-45.997 62.909-23.677l26.65-17.19c-34.587-59.186-31.183-133.752 9.688-189.795l-31.146-24.917c-24.098 19.447-60.192 2.221-60.192-28.798 0-20.4 16.6-37 37-37 27.312 0 45.296 28.796 33.198 53.313 2.777 2.221 82.127 65.702 83.677 66.942 3.588 2.87 8.889 2.151 11.564-1.676 2.441-3.492 1.545-8.327-1.783-10.989l-43.784-35.027c-3.921-3.137-4.034-9.089-.203-12.336 54.854-46.483 130.404-53.259 191.028-22.375l11.547-20.383c-25.133-22.672-8.961-64.469 24.756-64.469 20.4 0 37 16.6 37 37 0 24.855-24.134 42.661-47.846 35.375-6.115 10.795-21.71 38.323-28.25 49.869-2.265 3.998-.713 9.117 3.489 11.151 3.835 1.856 8.467.204 10.567-3.503l11.165-19.709c2.498-4.409 8.388-5.385 12.229-2.08 23.326 20.073 41.292 46.208 51.416 75.937l16.25-4.7c-1.048-14.654 11.647-30.34 29.48-30.34 16.904 0 30.526 14.28 29.439 31.414-.961 15.148-13.641 27.266-28.816 27.58-10.586.219-19.947-5.162-25.313-13.384l-16.59 4.8c12.153 50.715 1.132 105.107-32.1 147.59l43.67 37.43c24.741-18.626 59.754-.102 59.204 30.25zm-316.994-115.68c21.505 0 39-17.495 39-39s-17.495-39-39-39-39 17.495-39 39 17.495 39 39 39zm66-143c8.822 0 16-7.177 16-16s-7.178-16-16-16-16 7.177-16 16 7.178 16 16 16zm136 107c0-35.841-29.159-65-65-65s-65 29.159-65 65 29.159 65 65 65 65-29.159 65-65zm-65-49c-27.019 0-49 21.981-49 49s21.981 49 49 49 49-21.981 49-49-21.981-49-49-49zm-137 23c-12.682 0-23 10.318-23 23s10.318 23 23 23 23-10.318 23-23-10.318-23-23-23z"/></svg>